<mxfile host="app.diagrams.net" agent="Mozilla/5.0 (Windows NT 10.0; Win64; x64) AppleWebKit/537.36 (KHTML, like Gecko) Chrome/130.0.0.0 Safari/537.36 Edg/130.0.0.0" version="24.9.3">
  <diagram name="Page-1" id="5-ev-mRVP4xy-OfdvpHT">
    <mxGraphModel dx="595" dy="350" grid="1" gridSize="10" guides="1" tooltips="1" connect="1" arrows="1" fold="1" page="1" pageScale="1" pageWidth="827" pageHeight="1169" math="0" shadow="0">
      <root>
        <mxCell id="0" />
        <mxCell id="1" parent="0" />
        <mxCell id="KJCYhKLITdV8c5P8gec8-2" value="USE CASE SISTEM APLIKASI RENTAL MOBIL" style="swimlane;whiteSpace=wrap;html=1;strokeColor=default;swimlaneLine=0;" parent="1" vertex="1">
          <mxGeometry x="147" y="287" width="533" height="423" as="geometry">
            <mxRectangle x="147" y="287" width="300" height="30" as="alternateBounds" />
          </mxGeometry>
        </mxCell>
        <mxCell id="wwvIs3sMuDF8hLlY4sbJ-28" style="rounded=0;orthogonalLoop=1;jettySize=auto;html=1;exitX=0;exitY=0.5;exitDx=0;exitDy=0;strokeColor=none;" parent="KJCYhKLITdV8c5P8gec8-2" edge="1">
          <mxGeometry relative="1" as="geometry">
            <mxPoint x="-17.5" y="395" as="targetPoint" />
            <mxPoint x="162.49999999999955" y="515" as="sourcePoint" />
          </mxGeometry>
        </mxCell>
        <mxCell id="wwvIs3sMuDF8hLlY4sbJ-6" style="rounded=0;orthogonalLoop=1;jettySize=auto;html=1;exitX=1;exitY=0.5;exitDx=0;exitDy=0;entryX=0;entryY=0.5;entryDx=0;entryDy=0;strokeColor=none;" parent="KJCYhKLITdV8c5P8gec8-2" edge="1">
          <mxGeometry relative="1" as="geometry">
            <mxPoint x="162.49999999999955" y="515" as="targetPoint" />
            <mxPoint x="165" y="208.5" as="sourcePoint" />
          </mxGeometry>
        </mxCell>
        <mxCell id="KJCYhKLITdV8c5P8gec8-6" value="&lt;font face=&quot;Times New Roman&quot;&gt;LOGIN&lt;/font&gt;" style="ellipse;whiteSpace=wrap;html=1;" parent="KJCYhKLITdV8c5P8gec8-2" vertex="1">
          <mxGeometry x="220" y="188.5" width="99" height="40" as="geometry" />
        </mxCell>
        <mxCell id="wwvIs3sMuDF8hLlY4sbJ-37" value="" style="endArrow=classic;html=1;rounded=0;exitX=1;exitY=0.5;exitDx=0;exitDy=0;dashed=1;" parent="KJCYhKLITdV8c5P8gec8-2" source="2P-Zrm7ylwHTBfBdRfBB-6" target="KJCYhKLITdV8c5P8gec8-6" edge="1">
          <mxGeometry relative="1" as="geometry">
            <mxPoint x="170" y="158.5" as="sourcePoint" />
            <mxPoint x="319" y="320.5" as="targetPoint" />
          </mxGeometry>
        </mxCell>
        <mxCell id="wwvIs3sMuDF8hLlY4sbJ-38" value="include" style="edgeLabel;resizable=0;html=1;;align=center;verticalAlign=middle;" parent="wwvIs3sMuDF8hLlY4sbJ-37" connectable="0" vertex="1">
          <mxGeometry relative="1" as="geometry" />
        </mxCell>
        <mxCell id="wwvIs3sMuDF8hLlY4sbJ-40" value="" style="rounded=0;orthogonalLoop=1;jettySize=auto;html=1;exitX=1;exitY=0.5;exitDx=0;exitDy=0;entryX=0;entryY=0.5;entryDx=0;entryDy=0;strokeColor=none;" parent="KJCYhKLITdV8c5P8gec8-2" edge="1">
          <mxGeometry relative="1" as="geometry">
            <mxPoint x="170" y="158.5" as="sourcePoint" />
            <mxPoint x="66" y="208.5" as="targetPoint" />
          </mxGeometry>
        </mxCell>
        <mxCell id="wwvIs3sMuDF8hLlY4sbJ-44" value="" style="endArrow=classic;html=1;rounded=0;exitX=1;exitY=0.5;exitDx=0;exitDy=0;dashed=1;" parent="KJCYhKLITdV8c5P8gec8-2" source="2P-Zrm7ylwHTBfBdRfBB-5" target="KJCYhKLITdV8c5P8gec8-6" edge="1">
          <mxGeometry relative="1" as="geometry">
            <mxPoint x="170" y="248" as="sourcePoint" />
            <mxPoint x="230" y="218.5" as="targetPoint" />
          </mxGeometry>
        </mxCell>
        <mxCell id="wwvIs3sMuDF8hLlY4sbJ-45" value="include" style="edgeLabel;resizable=0;html=1;;align=center;verticalAlign=middle;" parent="wwvIs3sMuDF8hLlY4sbJ-44" connectable="0" vertex="1">
          <mxGeometry relative="1" as="geometry" />
        </mxCell>
        <mxCell id="2P-Zrm7ylwHTBfBdRfBB-5" value="&lt;font face=&quot;Times New Roman&quot;&gt;KELOLA AKUN&lt;/font&gt;" style="ellipse;whiteSpace=wrap;html=1;" vertex="1" parent="KJCYhKLITdV8c5P8gec8-2">
          <mxGeometry x="51.31" y="233" width="118.69" height="40" as="geometry" />
        </mxCell>
        <mxCell id="2P-Zrm7ylwHTBfBdRfBB-6" value="&lt;font face=&quot;Times New Roman&quot;&gt;RENTAL KENDARAAN&lt;/font&gt;" style="ellipse;whiteSpace=wrap;html=1;" vertex="1" parent="KJCYhKLITdV8c5P8gec8-2">
          <mxGeometry x="51.31" y="153" width="118.69" height="40" as="geometry" />
        </mxCell>
        <mxCell id="KJCYhKLITdV8c5P8gec8-14" value="&lt;font face=&quot;Times New Roman&quot;&gt;KELOLA KENDARAAN&lt;/font&gt;" style="ellipse;whiteSpace=wrap;html=1;" parent="KJCYhKLITdV8c5P8gec8-2" vertex="1">
          <mxGeometry x="361.31" y="233" width="118.69" height="40" as="geometry" />
        </mxCell>
        <mxCell id="KJCYhKLITdV8c5P8gec8-31" value="" style="endArrow=classic;html=1;rounded=0;exitX=0;exitY=0.5;exitDx=0;exitDy=0;dashed=1;" parent="KJCYhKLITdV8c5P8gec8-2" source="KJCYhKLITdV8c5P8gec8-14" target="KJCYhKLITdV8c5P8gec8-6" edge="1">
          <mxGeometry relative="1" as="geometry">
            <mxPoint x="418" y="320.5" as="sourcePoint" />
            <mxPoint x="305" y="525.5" as="targetPoint" />
          </mxGeometry>
        </mxCell>
        <mxCell id="KJCYhKLITdV8c5P8gec8-32" value="include" style="edgeLabel;resizable=0;html=1;;align=center;verticalAlign=middle;" parent="KJCYhKLITdV8c5P8gec8-31" connectable="0" vertex="1">
          <mxGeometry relative="1" as="geometry" />
        </mxCell>
        <mxCell id="KJCYhKLITdV8c5P8gec8-23" value="&lt;font face=&quot;Times New Roman&quot;&gt;LAPORAN TRANSAKSI&lt;/font&gt;" style="ellipse;whiteSpace=wrap;html=1;" parent="KJCYhKLITdV8c5P8gec8-2" vertex="1">
          <mxGeometry x="360" y="63" width="120" height="47" as="geometry" />
        </mxCell>
        <mxCell id="2P-Zrm7ylwHTBfBdRfBB-3" value="" style="endArrow=classic;html=1;rounded=0;exitX=0;exitY=0.5;exitDx=0;exitDy=0;dashed=1;" edge="1" parent="KJCYhKLITdV8c5P8gec8-2" source="KJCYhKLITdV8c5P8gec8-23" target="KJCYhKLITdV8c5P8gec8-6">
          <mxGeometry relative="1" as="geometry">
            <mxPoint x="507" y="387" as="sourcePoint" />
            <mxPoint x="432" y="477" as="targetPoint" />
          </mxGeometry>
        </mxCell>
        <mxCell id="2P-Zrm7ylwHTBfBdRfBB-4" value="include" style="edgeLabel;resizable=0;html=1;;align=center;verticalAlign=middle;" connectable="0" vertex="1" parent="2P-Zrm7ylwHTBfBdRfBB-3">
          <mxGeometry relative="1" as="geometry" />
        </mxCell>
        <mxCell id="KJCYhKLITdV8c5P8gec8-13" value="&lt;font face=&quot;Times New Roman&quot;&gt;KELOLA TRANSAKSI&lt;/font&gt;" style="ellipse;whiteSpace=wrap;html=1;" parent="1" vertex="1">
          <mxGeometry x="507" y="438.5" width="118.69" height="40" as="geometry" />
        </mxCell>
        <mxCell id="KJCYhKLITdV8c5P8gec8-15" value="&lt;font face=&quot;Times New Roman&quot;&gt;KELOLA&amp;nbsp;&lt;/font&gt;&lt;div&gt;&lt;font face=&quot;Times New Roman&quot;&gt;CUSTOMER&lt;/font&gt;&lt;/div&gt;" style="ellipse;whiteSpace=wrap;html=1;" parent="1" vertex="1">
          <mxGeometry x="508.31" y="608.5" width="118.69" height="40" as="geometry" />
        </mxCell>
        <mxCell id="KJCYhKLITdV8c5P8gec8-4" value="Actor" style="shape=umlActor;verticalLabelPosition=bottom;verticalAlign=top;html=1;outlineConnect=0;" parent="1" vertex="1">
          <mxGeometry x="723" y="343.5" width="30" height="60" as="geometry" />
        </mxCell>
        <mxCell id="KJCYhKLITdV8c5P8gec8-5" value="Actor" style="shape=umlActor;verticalLabelPosition=bottom;verticalAlign=top;html=1;outlineConnect=0;" parent="1" vertex="1">
          <mxGeometry x="723" y="510" width="30" height="60" as="geometry" />
        </mxCell>
        <mxCell id="KJCYhKLITdV8c5P8gec8-20" value="" style="endArrow=none;html=1;rounded=0;exitX=1;exitY=0.5;exitDx=0;exitDy=0;" parent="1" source="KJCYhKLITdV8c5P8gec8-13" target="KJCYhKLITdV8c5P8gec8-5" edge="1">
          <mxGeometry width="50" height="50" relative="1" as="geometry">
            <mxPoint x="583" y="519" as="sourcePoint" />
            <mxPoint x="723" y="540" as="targetPoint" />
          </mxGeometry>
        </mxCell>
        <mxCell id="KJCYhKLITdV8c5P8gec8-21" value="" style="endArrow=none;html=1;rounded=0;entryX=1;entryY=0.5;entryDx=0;entryDy=0;" parent="1" source="KJCYhKLITdV8c5P8gec8-5" target="KJCYhKLITdV8c5P8gec8-14" edge="1">
          <mxGeometry width="50" height="50" relative="1" as="geometry">
            <mxPoint x="672" y="469" as="sourcePoint" />
            <mxPoint x="803" y="559" as="targetPoint" />
          </mxGeometry>
        </mxCell>
        <mxCell id="KJCYhKLITdV8c5P8gec8-22" value="" style="endArrow=none;html=1;rounded=0;entryX=1;entryY=0.5;entryDx=0;entryDy=0;" parent="1" source="KJCYhKLITdV8c5P8gec8-5" target="KJCYhKLITdV8c5P8gec8-15" edge="1">
          <mxGeometry width="50" height="50" relative="1" as="geometry">
            <mxPoint x="803" y="559" as="sourcePoint" />
            <mxPoint x="672" y="569" as="targetPoint" />
          </mxGeometry>
        </mxCell>
        <mxCell id="KJCYhKLITdV8c5P8gec8-25" value="" style="endArrow=none;html=1;rounded=0;exitX=1;exitY=0.5;exitDx=0;exitDy=0;" parent="1" source="KJCYhKLITdV8c5P8gec8-23" target="KJCYhKLITdV8c5P8gec8-4" edge="1">
          <mxGeometry width="50" height="50" relative="1" as="geometry">
            <mxPoint x="662" y="349" as="sourcePoint" />
            <mxPoint x="793" y="459" as="targetPoint" />
          </mxGeometry>
        </mxCell>
        <mxCell id="KJCYhKLITdV8c5P8gec8-29" value="" style="endArrow=classic;html=1;rounded=0;exitX=0;exitY=0.5;exitDx=0;exitDy=0;dashed=1;" parent="1" source="KJCYhKLITdV8c5P8gec8-13" target="KJCYhKLITdV8c5P8gec8-6" edge="1">
          <mxGeometry relative="1" as="geometry">
            <mxPoint x="565" y="607.5" as="sourcePoint" />
            <mxPoint x="702" y="592.5" as="targetPoint" />
          </mxGeometry>
        </mxCell>
        <mxCell id="KJCYhKLITdV8c5P8gec8-30" value="include" style="edgeLabel;resizable=0;html=1;;align=center;verticalAlign=middle;" parent="KJCYhKLITdV8c5P8gec8-29" connectable="0" vertex="1">
          <mxGeometry relative="1" as="geometry" />
        </mxCell>
        <mxCell id="KJCYhKLITdV8c5P8gec8-33" value="" style="endArrow=classic;html=1;rounded=0;exitX=0;exitY=0.5;exitDx=0;exitDy=0;dashed=1;" parent="1" source="KJCYhKLITdV8c5P8gec8-15" target="KJCYhKLITdV8c5P8gec8-6" edge="1">
          <mxGeometry relative="1" as="geometry">
            <mxPoint x="565" y="607.5" as="sourcePoint" />
            <mxPoint x="432" y="842.5" as="targetPoint" />
          </mxGeometry>
        </mxCell>
        <mxCell id="KJCYhKLITdV8c5P8gec8-34" value="include" style="edgeLabel;resizable=0;html=1;;align=center;verticalAlign=middle;" parent="KJCYhKLITdV8c5P8gec8-33" connectable="0" vertex="1">
          <mxGeometry relative="1" as="geometry" />
        </mxCell>
        <mxCell id="KJCYhKLITdV8c5P8gec8-3" value="Actor" style="shape=umlActor;verticalLabelPosition=bottom;verticalAlign=top;html=1;outlineConnect=0;" parent="1" vertex="1">
          <mxGeometry x="73" y="468.5" width="30" height="60" as="geometry" />
        </mxCell>
        <mxCell id="wwvIs3sMuDF8hLlY4sbJ-43" style="rounded=0;orthogonalLoop=1;jettySize=auto;html=1;entryX=0;entryY=0.5;entryDx=0;entryDy=0;endArrow=none;endFill=0;" parent="1" source="KJCYhKLITdV8c5P8gec8-3" target="2P-Zrm7ylwHTBfBdRfBB-5" edge="1">
          <mxGeometry relative="1" as="geometry">
            <mxPoint x="197" y="535" as="targetPoint" />
          </mxGeometry>
        </mxCell>
        <mxCell id="wwvIs3sMuDF8hLlY4sbJ-36" style="rounded=0;orthogonalLoop=1;jettySize=auto;html=1;exitX=0;exitY=0.5;exitDx=0;exitDy=0;endArrow=none;endFill=0;" parent="1" source="2P-Zrm7ylwHTBfBdRfBB-6" target="KJCYhKLITdV8c5P8gec8-3" edge="1">
          <mxGeometry relative="1" as="geometry">
            <mxPoint x="197" y="445.5" as="sourcePoint" />
          </mxGeometry>
        </mxCell>
      </root>
    </mxGraphModel>
  </diagram>
</mxfile>
